<svg xmlns="http://www.w3.org/2000/svg" viewBox="0 0 64 64" id="anahata">
  <g>
    <path d="M5.317 38.479a10.051 10.051 0 0 0 2.606 3.528 10.031 10.031 0 0 0 .628 4.279c1.816 5 1.989 6.09 2 6.259a1 1 0 0 0 .9.9c.169.016 1.26.189 6.259 2a10.512 10.512 0 0 0 3.587.677c.233 0 .457-.035.686-.054a10.046 10.046 0 0 0 3.534 2.611c4.816 2.249 5.712 2.9 5.843 3.008a1 1 0 0 0 1.272 0c.131-.108 1.027-.759 5.843-3.008a10.046 10.046 0 0 0 3.534-2.611c.229.019.453.054.686.054a10.512 10.512 0 0 0 3.587-.677c5-1.816 6.09-1.989 6.259-2a1 1 0 0 0 .9-.9c.016-.169.189-1.26 2-6.259a10.031 10.031 0 0 0 .628-4.279 10.051 10.051 0 0 0 2.606-3.528c2.249-4.816 2.9-5.712 3.008-5.843a1 1 0 0 0 0-1.272c-.108-.131-.759-1.027-3.008-5.843a10.049 10.049 0 0 0-2.606-3.53 10.036 10.036 0 0 0-.628-4.277c-1.816-5-1.989-6.09-2-6.259a1 1 0 0 0-.9-.9c-.169-.016-1.26-.189-6.259-2a10.022 10.022 0 0 0-4.277-.628 10.039 10.039 0 0 0-3.53-2.606c-4.816-2.249-5.712-2.9-5.843-3.008a1 1 0 0 0-1.272 0c-.131.108-1.027.759-5.843 3.008a10.039 10.039 0 0 0-3.53 2.606 10.02 10.02 0 0 0-4.277.628c-5 1.816-6.09 1.989-6.259 2a1 1 0 0 0-.9.9c-.016.169-.189 1.26-2 6.259a10.036 10.036 0 0 0-.628 4.277 10.039 10.039 0 0 0-2.606 3.53c-2.249 4.816-2.9 5.712-3.008 5.843a1 1 0 0 0 0 1.272c.108.131.759 1.027 3.008 5.843ZM18.4 53.569c-2.054-.746-4.578-1.624-5.994-1.971-.347-1.416-1.225-3.94-1.971-5.994a8.9 8.9 0 0 1-.523-2.391 7.389 7.389 0 0 0 3.5.529 22.174 22.174 0 0 0 6.847 6.848 7.606 7.606 0 0 0 .527 3.5 8.889 8.889 0 0 1-2.386-.521Zm19.236 3.3c-1.979.925-4.385 2.09-5.632 2.846-1.247-.756-3.653-1.921-5.632-2.846-3.263-1.524-4.032-3.711-4.141-5.168a21.93 21.93 0 0 0 19.546 0c-.113 1.458-.877 3.645-4.145 5.169ZM53.569 45.6c-.746 2.054-1.624 4.578-1.971 5.994-1.416.347-3.94 1.225-5.994 1.971a8.88 8.88 0 0 1-2.387.523 7.606 7.606 0 0 0 .527-3.5 22.174 22.174 0 0 0 6.847-6.848 7.389 7.389 0 0 0 3.5-.529 8.9 8.9 0 0 1-.522 2.389Zm3.3-19.236c.925 1.979 2.09 4.385 2.846 5.632-.756 1.247-1.921 3.653-2.846 5.632-1.524 3.262-3.711 4.031-5.168 4.141a21.93 21.93 0 0 0 0-19.546c1.458.113 3.645.877 5.169 4.145ZM45.6 10.431c2.054.746 4.578 1.624 5.994 1.971.347 1.416 1.225 3.94 1.971 5.994a8.877 8.877 0 0 1 .522 2.387 7.578 7.578 0 0 0-3.5-.527 22.172 22.172 0 0 0-6.845-6.846 7.606 7.606 0 0 0-.527-3.5 8.88 8.88 0 0 1 2.385.521ZM26.368 7.13c1.979-.925 4.385-2.09 5.632-2.846 1.247.756 3.653 1.921 5.632 2.846 3.263 1.524 4.032 3.711 4.141 5.168a21.93 21.93 0 0 0-19.546 0c.109-1.457.878-3.644 4.141-5.168ZM32 12a20 20 0 1 1-20 20 20.023 20.023 0 0 1 20-20Zm-21.569 6.4c.746-2.054 1.624-4.578 1.971-5.994 1.416-.347 3.94-1.225 5.994-1.971a8.889 8.889 0 0 1 2.387-.523 7.606 7.606 0 0 0-.527 3.5 22.172 22.172 0 0 0-6.845 6.846 7.578 7.578 0 0 0-3.5.527 8.877 8.877 0 0 1 .52-2.385Zm-3.3 7.972c1.524-3.262 3.711-4.031 5.168-4.141a21.935 21.935 0 0 0 0 19.548c-1.456-.11-3.644-.879-5.168-4.143C6.205 35.653 5.04 33.247 4.284 32c.756-1.247 1.921-3.653 2.846-5.632Z"></path>
    <path d="M32 36a4 4 0 1 0-4-4 4 4 0 0 0 4 4Zm0-6a2 2 0 1 1-2 2 2 2 0 0 1 2-2Z"></path>
    <path d="M32 50a18 18 0 1 0-18-18 18.021 18.021 0 0 0 18 18ZM18.638 39.821a.984.984 0 0 1 0-1l2.85-4.937 3.717 6.437H19.5a.981.981 0 0 1-.862-.5Zm4.006-7.937 4.6-7.973h9.506l4.6 7.973-4.871 8.437h-8.97Zm-2.85 10.437h6.566l3.04 5.268c.044.076.107.134.156.2a15.988 15.988 0 0 1-9.762-5.468ZM32 47.089a.982.982 0 0 1-.866-.5l-2.464-4.268h6.66l-2.464 4.268a.982.982 0 0 1-.866.5Zm2.442.7c.049-.071.112-.129.156-.2l3.042-5.268h6.566a15.988 15.988 0 0 1-9.764 5.473Zm10.92-7.973a.981.981 0 0 1-.866.5h-5.7l3.717-6.437 2.85 4.937a.984.984 0 0 1-.001 1.005Zm1.542-13.6a15.75 15.75 0 0 1 .064 11.38l-3.3-5.719 3.16-5.473c.032-.053.046-.12.072-.181Zm-1.81-1.812a.984.984 0 0 1 0 1l-2.582 4.473-3.449-5.973h5.166a.981.981 0 0 1 .865.507Zm-.672-2.475c-.066 0-.127-.025-.194-.025h-6.32l-3.277-5.676a15.994 15.994 0 0 1 9.791 5.708ZM32 16.679a.984.984 0 0 1 .866.5l2.734 4.732h-7.2l2.732-4.732a.984.984 0 0 1 .868-.5Zm-2.631-.444-3.277 5.676h-6.32c-.067 0-.128.021-.194.025a15.994 15.994 0 0 1 9.791-5.701Zm-10.463 8.176a.981.981 0 0 1 .866-.5h5.166l-3.449 5.973-2.582-4.473a.984.984 0 0 1-.001-1Zm-1.732 2 3.16 5.473-3.3 5.719a15.75 15.75 0 0 1 .064-11.38c.029.062.042.128.076.188Z"></path>
  </g>
</svg>
